<svg>
    <g xmlns="http://www.w3.org/2000/svg" id="Fill-1-+-Fill-10" transform="translate(3.222222, 0.000000)"
        xmlns:sketch="http://www.bohemiancoding.com/sketch/ns" sketch:type="MSShapeGroup">
        <path
            d="M10.1625942,50.8264615 C10.1625942,53.5982959 7.90677323,55.844426 5.12173713,55.844426 C2.33769956,55.844426 0.0818785635,53.5982959 0.0818785635,50.8264615 C0.0818785635,48.0551243 2.33769956,45.8091598 5.12173713,45.8091598 C7.90677323,45.8091598 10.1625942,48.0551243 10.1625942,50.8264615"
            id="Fill-1" fill="#DC4138" />
        <path
            d="M32.0749287,47.7386746 L31.899023,47.4888284 C30.3358414,45.0698935 29.3997297,42.2667456 29.3997297,39.3776095 C29.3997297,36.4886391 30.3358414,33.6833373 31.899023,31.264568 L32.0950655,30.9873846 C32.7005009,30.1051361 33.135356,29.1458462 33.1639802,28.0626272 C33.1879447,27.1212308 32.9461366,26.1808284 32.462687,25.3711479 C31.4703254,23.7042367 29.459308,22.6458698 27.5092003,22.9672899 C26.2264361,23.1830059 25.1536938,23.9287337 24.0756261,24.6015621 C20.9214708,26.6222012 16.9673352,27.339432 13.409279,26.0028876 C10.1379641,24.7730414 7.55612662,21.9892781 6.72203036,18.592497 C5.86247186,15.0868639 6.97765124,11.3340355 8.89680489,8.36388166 C8.89680489,8.36388166 9.33931525,7.69105325 9.46912273,7.44617751 C9.80196242,6.85602367 10.0452682,6.22710059 10.1138332,5.53671006 C10.1309745,5.37102959 10.1263147,5.20534911 10.1263147,5.03850888 C10.148615,4.24274556 9.98568993,3.4380355 9.57246946,2.66646154 C8.77398704,1.17715976 7.23626768,0.165514793 5.5457749,0.0246863905 C5.51182525,0.022035503 5.47854128,0.0258461538 5.44542373,0.0240236686 C5.33425528,0.0159053254 5.2229204,0.0215384615 5.11175194,0.0208757396 C4.99891929,0.0215384615 4.88775083,0.0159053254 4.77658238,0.0240236686 C4.74329841,0.0258461538 4.71018086,0.022035503 4.67623121,0.0246863905 C2.98557201,0.165514793 1.44868475,1.17715976 0.649370233,2.66646154 C0.236316179,3.4380355 0.0723926324,4.24274556 0.0956914106,5.03850888 C0.0956914106,5.20534911 0.0910316549,5.37102959 0.1073408,5.53671006 C0.177569974,6.22710059 0.420875787,6.85602367 0.752883377,7.44617751 C0.882524435,7.69105325 1.34750148,8.36388166 1.34750148,8.36388166 C2.91068308,10.7831479 3.84746039,13.5859645 3.84746039,16.4757633 C3.84746039,19.3644024 2.91068308,22.1697041 1.34750148,24.5891361 L1.1506268,24.864497 C0.707284339,25.5129704 0.333505368,26.1808284 0.169748241,27.0118817 C-0.0426034802,28.527858 0.275591262,30.0090414 1.29424713,31.1923314 C2.39561366,32.4693964 4.06447186,33.0989822 5.73582636,32.8857515 C6.60537005,32.7399527 7.47025398,32.3212781 8.16855165,31.8789112 C8.26890281,31.8003787 8.475097,31.6754556 8.475097,31.6754556 C8.54765605,31.6247574 9.17089837,31.2511479 9.17089837,31.2511479 C12.3250537,29.2310059 16.2776914,28.5131124 19.8355813,29.8494911 C23.1078947,31.0785089 25.6918956,33.8622722 26.523662,37.2605444 C27.3825548,40.7673373 26.270371,44.5175148 24.3512173,47.4888284 L24.1744795,47.7386746 C23.0654576,49.3167811 22.7194708,51.2267456 23.5851868,53.0069822 C24.3304148,54.5420118 25.8471653,55.6164497 27.5501396,55.8111243 C29.2769119,56.0129231 31.0246531,55.2782959 32.0950655,53.9168994 C33.2017575,52.5102722 33.4968199,50.5250888 32.7515918,48.8861775 C32.5676979,48.4814201 32.330716,48.1028402 32.0749287,47.7386746 Z"
            id="Fill-10" fill="#61BA66" />
    </g>
</svg>